<?xml version="1.0" standalone="no"?>
<!DOCTYPE svg PUBLIC "-//W3C//DTD SVG 20010904//EN"
 "http://www.w3.org/TR/2001/REC-SVG-20010904/DTD/svg10.dtd">
<svg version="1.0" xmlns="http://www.w3.org/2000/svg"
 width="338.000000pt" height="338.000000pt" viewBox="0 0 338.000000 338.000000"
 preserveAspectRatio="xMidYMid meet">
<metadata>
Created by potrace 1.11, written by Peter Selinger 2001-2013
</metadata>
<g transform="translate(0.000000,338.000000) scale(0.100000,-0.100000)"
fill="#000000" stroke="none">
<path d="M1560 3174 c-107 -17 -235 -67 -310 -121 -91 -66 -173 -180 -218
-305 -27 -73 -27 -73 -30 -405 l-3 -333 -85 0 c-68 0 -84 -3 -84 -15 0 -13
107 -15 905 -15 798 0 905 2 905 15 0 13 -22 15 -140 15 l-140 0 0 293 c0 335
-7 382 -79 524 -66 132 -192 248 -327 302 -107 41 -282 61 -394 45z"/>
<path d="M960 1820 c-8 -5 -18 -6 -22 -4 -4 3 -8 -1 -8 -8 0 -9 -3 -9 -10 2
-7 11 -10 11 -10 2 0 -7 -6 -12 -12 -11 -28 3 -39 -1 -32 -13 5 -10 4 -10 -6
-1 -11 10 -18 9 -34 -5 -11 -9 -16 -11 -12 -5 5 9 2 11 -8 7 -9 -3 -16 -10
-16 -14 0 -5 -9 -7 -20 -5 -11 2 -18 0 -15 -4 4 -8 -31 -24 -47 -22 -5 1 -8
-4 -8 -10 0 -5 -5 -7 -10 -4 -6 4 -9 1 -8 -7 2 -8 -4 -12 -16 -10 -11 2 -15
-1 -11 -7 3 -6 -2 -11 -12 -11 -15 0 -16 -2 -3 -10 13 -8 12 -10 -2 -10 -10 0
-18 -5 -18 -11 0 -5 -4 -7 -10 -4 -5 3 -10 -1 -10 -9 0 -9 -5 -16 -11 -16 -5
0 -8 -4 -5 -9 3 -5 -1 -12 -10 -15 -8 -3 -13 -10 -9 -15 3 -6 -3 -14 -12 -20
-10 -6 -14 -11 -9 -11 5 0 3 -6 -3 -14 -7 -8 -11 -21 -9 -30 2 -8 -6 -22 -17
-31 -11 -9 -14 -14 -7 -10 6 3 12 1 12 -4 0 -6 -4 -11 -9 -11 -6 0 -8 -9 -6
-20 2 -11 -2 -20 -8 -20 -7 0 -6 -4 3 -10 10 -6 11 -10 3 -10 -9 0 -12 -15
-10 -45 1 -25 -1 -45 -6 -45 -4 0 -3 -10 4 -22 10 -18 9 -20 -5 -15 -15 6 -15
4 0 -18 12 -18 13 -25 4 -25 -10 0 -10 -3 0 -15 10 -12 10 -15 -1 -15 -11 0
-11 -2 -1 -8 8 -5 10 -16 6 -27 -5 -13 -4 -16 4 -11 11 6 18 -27 13 -57 -1 -5
3 -6 9 -2 6 3 10 -3 10 -15 0 -14 4 -19 12 -14 7 5 9 2 5 -8 -3 -9 0 -21 6
-27 6 -6 7 -11 2 -11 -6 0 1 -6 15 -13 14 -7 26 -22 28 -34 2 -15 8 -20 19
-16 11 4 14 2 9 -5 -4 -7 -1 -15 8 -18 9 -3 16 -12 16 -20 0 -8 6 -11 17 -7
13 5 15 2 10 -11 -5 -14 -3 -17 8 -12 8 3 15 2 15 -2 0 -4 9 -13 21 -20 17
-11 20 -11 13 0 -6 10 -4 10 9 -1 9 -7 14 -17 11 -22 -3 -5 -1 -9 5 -9 5 0 13
5 17 11 5 8 10 7 16 -4 5 -10 15 -14 25 -10 12 5 14 3 8 -7 -5 -8 -3 -11 6 -8
8 3 23 -2 33 -11 11 -9 16 -10 12 -3 -4 6 -2 12 3 12 6 0 11 -5 11 -11 0 -8 5
-8 15 1 8 7 15 8 15 3 0 -6 10 -10 23 -9 12 1 34 -1 49 -5 16 -5 30 -3 34 3 4
6 10 5 15 -3 7 -12 9 -12 9 0 0 7 6 11 15 8 8 -4 17 -2 20 3 4 6 11 10 16 10
6 0 8 -4 5 -8 -3 -5 1 -9 9 -9 8 0 12 4 9 9 -5 7 13 12 43 11 7 -1 10 4 6 10
-4 6 0 8 10 4 10 -3 17 -2 17 3 0 6 6 9 13 7 6 -1 11 3 10 10 -2 7 4 10 13 6
8 -3 26 5 41 18 14 13 23 18 18 10 -5 -9 -4 -12 3 -7 7 4 12 14 12 23 0 9 3
14 6 11 7 -7 50 34 47 44 -2 4 5 4 14 1 9 -4 14 -2 10 3 -3 6 2 16 13 24 10 7
16 19 13 26 -3 8 2 17 11 20 9 3 13 10 10 15 -3 5 0 9 5 9 6 0 11 9 11 21 0
14 5 19 13 16 10 -4 13 2 9 19 -2 13 0 24 6 24 6 0 9 9 7 20 -2 11 0 20 5 20
5 0 7 9 5 20 -2 11 1 20 7 20 6 0 5 7 -3 17 -12 14 -12 16 0 8 11 -6 13 -2 9
19 -3 14 -1 26 4 26 5 0 7 4 4 9 -3 5 1 12 10 15 10 4 13 2 8 -7 -5 -8 -2 -7
9 2 9 7 17 10 17 5 0 -5 13 -9 29 -9 16 -1 27 3 25 7 -7 11 8 10 26 -2 9 -5
19 -5 27 2 10 8 13 7 13 -3 0 -12 2 -12 9 0 6 9 10 10 16 2 5 -9 10 -9 21 0
11 9 14 8 14 -2 0 -9 3 -10 8 -4 11 15 32 17 32 2 0 -9 3 -8 9 2 6 9 11 10 15
2 10 -15 29 -14 20 2 -6 10 -4 10 7 0 19 -18 59 -16 59 3 0 9 -5 12 -12 8 -10
-6 -10 -4 0 7 6 7 12 24 12 37 0 13 4 20 10 17 6 -3 10 -1 10 4 0 6 -6 11 -12
11 -9 0 -10 3 -2 8 6 4 10 17 9 29 -1 12 3 21 9 20 6 -1 10 4 9 11 -2 6 4 12
13 12 14 0 14 -3 4 -15 -7 -8 -9 -15 -4 -15 5 0 0 -7 -10 -15 -14 -11 -16 -15
-5 -15 12 0 12 -2 -1 -10 -8 -5 -10 -10 -5 -10 6 0 10 -22 10 -50 0 -27 -4
-50 -9 -50 -5 0 -3 -6 3 -14 9 -10 9 -16 1 -21 -8 -5 -8 -11 1 -21 6 -8 8 -14
5 -14 -4 0 -2 -9 4 -19 7 -14 6 -21 -3 -24 -6 -3 -4 -6 7 -6 15 -1 16 -4 6
-16 -9 -11 -9 -15 -1 -15 7 0 10 -4 6 -9 -3 -5 -1 -12 5 -16 6 -4 8 -11 5 -16
-4 -5 -1 -9 5 -9 6 0 8 -4 5 -10 -3 -5 -1 -10 5 -10 7 0 9 -9 6 -22 -3 -13 -3
-18 0 -11 4 10 8 10 19 0 7 -7 11 -15 8 -20 -2 -4 2 -10 11 -13 9 -3 12 -12 9
-22 -4 -9 -3 -14 1 -10 4 3 23 -9 42 -29 19 -19 34 -31 34 -27 0 4 7 -1 16
-12 8 -10 12 -12 8 -4 -7 13 -5 13 9 1 9 -7 14 -18 11 -23 -4 -6 4 -5 16 2 12
7 20 8 16 2 -8 -14 21 -35 38 -29 8 3 27 -4 42 -16 16 -12 25 -16 20 -9 -4 6
-2 12 3 12 6 0 11 -5 11 -11 0 -5 4 -8 9 -5 15 10 40 -5 35 -19 -7 -16 97 -17
108 0 5 6 8 5 8 -4 0 -11 3 -11 15 -1 8 6 18 9 24 6 5 -4 17 1 25 10 10 10 16
11 16 3 0 -8 3 -9 13 0 8 6 17 8 20 4 4 -3 7 -1 7 6 0 8 6 11 16 7 8 -3 12 -2
9 4 -3 6 1 10 11 10 9 0 22 7 28 16 6 8 20 16 29 18 10 1 32 18 49 37 17 19
27 28 23 20 -5 -9 -4 -12 3 -7 6 4 8 14 5 23 -4 11 -3 14 5 9 7 -4 12 -2 12 5
0 6 8 18 18 26 9 8 11 12 5 8 -9 -4 -11 -1 -7 9 3 9 10 13 15 10 8 -5 11 3 8
23 0 3 6 10 15 15 8 5 13 15 10 23 -4 8 -1 15 6 15 6 0 8 5 5 10 -4 6 -1 17 5
25 6 8 9 18 6 24 -3 5 0 12 6 14 9 4 9 6 -1 6 -11 1 -10 5 5 16 13 10 14 14 5
15 -10 0 -11 3 -3 13 6 7 10 34 8 59 -1 26 1 45 4 43 4 -3 5 7 2 20 -2 15 -9
22 -16 18 -6 -4 -5 1 3 10 9 11 10 17 2 17 -6 0 -11 5 -11 11 0 5 6 7 13 3 10
-6 10 -4 0 7 -7 7 -13 22 -13 34 0 12 -6 27 -12 33 -10 10 -10 15 1 21 11 7 9
10 -8 16 -17 5 -19 10 -11 26 6 11 7 19 3 18 -4 -1 -15 -1 -23 0 -13 1 -13 2
0 11 10 6 11 10 3 10 -7 0 -13 6 -13 13 0 6 -14 23 -30 36 -17 13 -30 27 -30
32 0 23 -101 95 -114 82 -4 -4 -4 1 0 12 7 18 6 18 -9 6 -11 -9 -17 -10 -17
-2 0 6 -9 11 -20 11 -11 0 -20 5 -20 10 0 6 -11 10 -25 10 -14 0 -25 5 -25 11
0 8 -5 8 -15 -1 -9 -7 -15 -8 -15 -2 0 5 -13 9 -29 8 -22 -2 -28 2 -23 14 5
13 3 13 -11 1 -14 -11 -17 -11 -17 0 0 9 -3 10 -8 4 -9 -12 -32 -13 -51 -1
-10 6 -12 5 -7 -2 4 -7 2 -12 -3 -12 -6 0 -11 6 -11 13 0 8 -4 7 -10 -3 -5 -8
-10 -12 -10 -8 0 4 -12 3 -27 -3 -27 -11 -48 -15 -86 -18 -11 -1 -15 -6 -11
-13 5 -8 2 -9 -9 -5 -10 3 -17 2 -17 -4 0 -6 -4 -7 -10 -4 -5 3 -10 3 -10 -2
0 -12 -51 -33 -64 -26 -6 4 -5 -1 2 -10 12 -14 11 -16 -7 -12 -14 2 -21 -1
-21 -11 0 -8 -4 -12 -10 -9 -5 3 -10 -1 -10 -10 0 -9 -3 -14 -7 -12 -5 2 -19
-8 -33 -21 -14 -14 -18 -22 -10 -18 8 4 4 -2 -10 -14 -14 -12 -18 -19 -10 -15
8 4 6 -1 -5 -10 -11 -9 -20 -20 -20 -26 0 -5 -5 -13 -11 -17 -6 -4 -10 -17 -9
-29 1 -12 -3 -21 -8 -20 -5 1 -12 -4 -15 -12 -3 -9 0 -11 8 -6 9 5 11 4 6 -3
-4 -7 -15 -12 -24 -12 -13 0 -14 -2 -3 -9 9 -6 10 -11 2 -15 -6 -4 -9 -12 -6
-17 4 -5 1 -9 -6 -9 -9 0 -9 -3 0 -14 9 -11 8 -15 -6 -20 -14 -6 -15 -9 -4
-15 9 -6 5 -10 -13 -13 -17 -3 -23 -1 -19 6 4 6 -1 5 -10 -3 -12 -9 -17 -10
-17 -2 0 9 -5 9 -20 1 -14 -8 -20 -8 -20 0 0 7 -7 7 -21 -1 -17 -8 -23 -8 -30
2 -6 10 -10 10 -23 0 -13 -11 -16 -11 -16 0 0 12 -2 12 -9 1 -4 -8 -12 -14
-16 -14 -4 0 -12 6 -16 14 -7 10 -9 10 -9 -2 0 -13 -1 -13 -10 0 -9 13 -10 13
-10 0 0 -13 -1 -13 -11 0 -8 11 -12 12 -15 3 -7 -17 -56 6 -50 23 3 8 0 16 -6
20 -7 4 -6 9 3 15 12 7 12 9 0 9 -7 0 -11 6 -8 14 4 10 1 13 -9 9 -7 -3 -14
-1 -14 5 0 6 6 13 13 15 10 4 10 6 0 6 -7 1 -13 10 -13 21 0 11 -5 20 -11 20
-5 0 -7 5 -4 11 4 6 -1 17 -11 25 -11 9 -13 13 -4 9 8 -4 5 2 -8 13 -15 14
-18 22 -10 25 8 4 7 6 -3 6 -16 1 -28 17 -25 33 2 12 -38 37 -49 31 -5 -4 -7
-3 -3 2 8 9 -15 35 -32 35 -6 0 -9 4 -5 9 5 9 -32 27 -47 23 -5 -1 -7 3 -5 10
1 7 -4 13 -10 14 -7 1 -16 3 -20 4 -5 1 -11 2 -15 1 -5 0 -8 3 -8 8 0 9 -48
26 -64 22 -4 -1 -15 4 -24 11 -12 10 -14 10 -8 1 11 -19 -5 -16 -21 5 -8 9
-12 12 -9 5 8 -15 -36 -14 -46 2 -5 6 -8 4 -8 -5 0 -13 -1 -13 -10 0 -8 12
-10 12 -10 1 0 -10 -3 -11 -13 -3 -8 7 -18 7 -27 2z m1103 -146 c10 -10 -4
-34 -20 -34 -8 0 -11 -5 -8 -10 3 -6 -1 -13 -9 -16 -9 -3 -13 -10 -10 -15 3
-5 -2 -6 -11 -3 -9 4 -15 3 -14 -2 4 -23 -2 -45 -11 -39 -5 3 -10 -3 -10 -14
0 -12 -5 -21 -11 -21 -5 0 -7 -5 -3 -12 5 -7 3 -8 -6 -3 -9 6 -12 4 -8 -7 4
-8 1 -15 -7 -15 -10 0 -11 6 -2 24 5 13 15 23 20 23 5 0 3 8 -4 17 -10 11 -10
14 -1 9 8 -5 16 3 24 21 6 15 10 32 9 36 -1 5 4 5 10 1 9 -5 10 -2 6 9 -3 9
-3 16 1 16 21 -3 32 2 26 13 -5 8 -2 9 9 5 9 -3 19 -1 23 5 4 7 3 8 -4 4 -7
-4 -12 -2 -12 3 0 12 13 15 23 5z"/>
<path d="M3190 1657 c-118 -116 -220 -226 -220 -236 0 -18 18 -12 42 13 13 13
72 73 131 134 67 68 107 117 105 127 -2 12 -17 3 -58 -38z"/>
<path d="M107 1685 c13 -22 265 -275 275 -275 22 0 -3 31 -128 155 -124 123
-169 160 -147 120z"/>
<path d="M2740 1661 c0 -6 4 -13 10 -16 6 -3 7 1 4 9 -7 18 -14 21 -14 7z"/>
<path d="M27 1324 c-19 -19 20 -24 179 -24 148 0 174 2 174 15 0 13 -26 15
-173 15 -96 0 -177 -3 -180 -6z"/>
<path d="M1896 1318 c3 -5 10 -6 15 -3 13 9 11 12 -6 12 -8 0 -12 -4 -9 -9z"/>
<path d="M2962 1318 c6 -16 357 -19 361 -3 1 6 -65 11 -181 13 -145 2 -183 0
-180 -10z"/>
<path d="M324 1184 c-110 -103 -224 -217 -224 -225 0 -22 22 -15 57 17 197
185 258 254 225 254 -5 0 -31 -21 -58 -46z"/>
<path d="M2966 1217 c2 -8 64 -73 136 -145 120 -121 158 -150 158 -122 0 16
-269 280 -285 280 -8 0 -12 -6 -9 -13z"/>
<path d="M1111 571 c-8 -14 -3 -24 22 -48 37 -35 138 -102 182 -122 64 -29
151 -62 175 -66 14 -3 36 -7 50 -10 117 -24 264 -14 384 27 125 43 326 173
326 212 0 22 -19 30 -39 14 -10 -7 -47 -35 -82 -61 -77 -58 -182 -111 -264
-133 -85 -23 -299 -28 -367 -8 -84 24 -227 98 -305 158 -66 49 -74 53 -82 37z"/>
<path d="M1617 223 c-4 -3 -7 -12 -7 -20 0 -19 186 -19 193 1 3 8 3 17 0 20
-9 8 -178 8 -186 -1z"/>
</g>
</svg>
